<svg width="0" height="0" class="hidden">
  <symbol fill="none" xmlns="http://www.w3.org/2000/svg" viewBox="0 0 60 60" id="arrow">
    <path opacity=".3" d="M59.5 30c0 16.292-13.208 29.5-29.5 29.5S.5 46.292.5 30 13.708.5 30 .5 59.5 13.708 59.5 30z" fill="#3543AE" stroke="#E7E7E7"></path>
    <path d="M30.5 19v23M20 31l10.5 11L41 31" stroke="#fff" stroke-width="1.5" stroke-linecap="round" stroke-linejoin="round"></path>
  </symbol>
  <symbol fill="none" xmlns="http://www.w3.org/2000/svg" viewBox="0 0 7 13" id="facebook">
    <path fill-rule="evenodd" clip-rule="evenodd" d="M7 .094A16.458 16.458 0 005.153 0C3.322 0 2.066 1.078 2.066 3.055v1.703H0V7.07h2.066V13h2.48V7.07h2.057l.316-2.312H4.545V3.28c0-.664.186-1.125 1.183-1.125H7V.094z" fill="#001832"></path>
  </symbol>
  <symbol fill="none" xmlns="http://www.w3.org/2000/svg" viewBox="0 0 40 40" id="facebook-btn">
    <circle cx="20" cy="20" r="20" fill="#63C7FF"></circle>
    <path d="M24 9v4.125h-2.75c-.825 0-1.375.55-1.375 1.375v2.75H24v4.125h-4.125V31H15.75v-9.625H13V17.25h2.75v-3.438C15.75 11.2 17.95 9 20.563 9H24z" fill="#fff"></path>
  </symbol>
  <symbol fill="none" xmlns="http://www.w3.org/2000/svg" viewBox="0 0 11 11" id="linkedin">
    <path fill-rule="evenodd" clip-rule="evenodd" d="M1.51 0C.596 0 0 .648 0 1.5 0 2.332.58 3 1.474 3h.018C2.422 3 3 2.333 3 1.5 2.982.647 2.422 0 1.51 0zM11 6.518V11H8.707V6.818c0-1.05-.331-1.767-1.161-1.767-.634 0-1.01.483-1.177.95-.06.167-.076.4-.076.634V11H4s.03-7.083 0-7.816h2.293v1.108l-.007.012a.288.288 0 00-.008.013h.015v-.025C6.598 3.76 7.142 3 8.36 3 9.869 3 11 4.117 11 6.518zM2 11H0V4h2v7z" fill="#001832"></path>
  </symbol>
  <symbol fill="none" xmlns="http://www.w3.org/2000/svg" viewBox="0 0 40 40" id="twitter">
    <circle cx="20" cy="20" r="20" fill="#63C7FF"></circle>
    <path d="M29.11 15.473c-.173 7.768-5.157 13.17-12.72 13.508-3.093.17-5.328-.844-7.39-2.026 2.234.338 5.156-.506 6.703-1.857-2.234-.169-3.61-1.35-4.297-3.208.688.169 1.375 0 1.89 0-2.062-.676-3.437-1.858-3.608-4.56.515.339 1.203.507 1.89.507-1.547-.844-2.578-4.052-1.375-6.078 2.235 2.364 4.985 4.39 9.453 4.728-1.203-4.728 5.328-7.261 7.907-4.053 1.203-.169 2.062-.675 2.921-1.013-.343 1.182-1.03 1.857-1.89 2.533.86-.17 1.718-.338 2.406-.676-.172.845-1.031 1.52-1.89 2.195z" fill="#fff"></path>
  </symbol>
  <symbol width="96" height="39" viewBox="0 0 96 39" fill="none" xmlns="http://www.w3.org/2000/svg" id="logo">
<path fill-rule="evenodd" clip-rule="evenodd" d="M3.3459 31.018H0V0H3.3459V31.018ZM22.8464 7.89926C26.0563 7.89926 28.7833 9.07104 31.0275 11.4146C33.2717 13.7582 34.3938 16.5705 34.3938 19.8515C34.3938 23.1326 33.2853 25.938 31.0683 28.2678C28.8513 30.5976 26.1107 31.7625 22.8464 31.7625C19.5821 31.7625 16.8346 30.5976 14.604 28.2678C12.3734 25.938 11.2581 23.1326 11.2581 19.8515C11.2581 16.5705 12.3802 13.7582 14.6244 11.4146C16.8686 9.07104 19.6093 7.89926 22.8464 7.89926ZM22.8464 28.4952C25.1042 28.4952 27.0287 27.6612 28.6201 25.9931C30.2114 24.325 31.0071 22.3123 31.0071 19.9549C31.0071 17.5976 30.1978 15.5573 28.5793 13.834C26.9607 12.1108 25.043 11.2492 22.826 11.2492C20.609 11.2492 18.698 12.1108 17.093 13.834C15.4881 15.5573 14.6856 17.6044 14.6856 19.9756C14.6856 22.3468 15.4609 24.3595 17.0114 26.0138C18.562 27.6681 20.5069 28.4952 22.8464 28.4952ZM64.9521 25.7243C64.9521 28.702 64.7005 30.9077 64.1972 32.3415C63.694 33.7752 62.9323 34.9883 61.9122 35.9809C60.8921 36.9735 59.668 37.7248 58.2399 38.2349C56.8117 38.745 55.2408 39 53.527 39C47.7329 39 43.8702 36.5186 41.9388 31.5557H45.5295C47.1073 34.4231 49.7323 35.8568 53.4046 35.8568C55.0912 35.8568 56.6009 35.526 57.9338 34.8643C59.2668 34.2025 60.2052 33.3203 60.7493 32.2174C61.2934 31.1145 61.5654 29.4189 61.5654 27.1304V26.9236C60.5045 28.1368 59.226 29.0604 57.7298 29.6946C56.2337 30.3287 54.6832 30.6458 53.0782 30.6458C49.8683 30.6458 47.1821 29.5292 45.0195 27.2959C42.8569 25.0626 41.7892 22.4295 41.8164 19.3966C41.7892 16.2259 42.9181 13.517 45.2031 11.2699C47.4881 9.02279 50.2015 7.89926 53.3434 7.89926C56.4853 7.89926 59.226 9.19511 61.5654 11.7868V8.47826H64.9521V25.7243ZM61.6878 19.3966C61.6878 17.0254 60.9057 15.0679 59.3416 13.5239C57.7774 11.9798 55.8665 11.2078 53.6087 11.2078C51.2148 11.2078 49.2087 12.0419 47.5901 13.71C45.9715 15.3781 45.1623 17.3149 45.1623 19.5207C45.1623 21.7264 45.9375 23.5944 47.4881 25.1246C49.0386 26.6548 51.0244 27.4199 53.4454 27.4199C55.8665 27.4199 57.8454 26.6686 59.3824 25.166C60.9193 23.6633 61.6878 21.7402 61.6878 19.3966ZM84.4525 7.89926C87.6625 7.89926 90.3895 9.07104 92.6337 11.4146C94.8779 13.7582 96 16.5705 96 19.8515C96 23.1326 94.8915 25.938 92.6745 28.2678C90.4575 30.5976 87.7169 31.7625 84.4525 31.7625C81.1882 31.7625 78.4408 30.5976 76.2102 28.2678C73.9796 25.938 72.8643 23.1326 72.8643 19.8515C72.8643 16.5705 73.9864 13.7582 76.2306 11.4146C78.4748 9.07104 81.2154 7.89926 84.4525 7.89926ZM84.4525 28.4952C86.7104 28.4952 88.6349 27.6612 90.2263 25.9931C91.8176 24.325 92.6133 22.3123 92.6133 19.9549C92.6133 17.5976 91.804 15.5573 90.1855 13.834C88.5669 12.1108 86.6492 11.2492 84.4321 11.2492C82.2151 11.2492 80.3042 12.1108 78.6992 13.834C77.0943 15.5573 76.2918 17.6044 76.2918 19.9756C76.2918 22.3468 77.0671 24.3595 78.6176 26.0138C80.1682 27.6681 82.1131 28.4952 84.4525 28.4952Z" fill="#263396"/>
</symbol>
<symbol width="16" height="20" viewBox="0 0 16 20" fill="none" xmlns="http://www.w3.org/2000/svg" id="play">
<path fill-rule="evenodd" clip-rule="evenodd" d="M0 0L16 10L0 20V0Z" fill="white"/>
</symbol>
</svg>